<?xml version="1.0" encoding="UTF-8" standalone="no"?>
<!DOCTYPE svg PUBLIC "-//W3C//DTD SVG 1.1//EN" "http://www.w3.org/Graphics/SVG/1.1/DTD/svg11.dtd">
<svg width="100%" height="100%" viewBox="0 0 542 542" version="1.1" xmlns="http://www.w3.org/2000/svg" xmlns:xlink="http://www.w3.org/1999/xlink" xml:space="preserve" xmlns:serif="http://www.serif.com/" style="fill-rule:evenodd;clip-rule:evenodd;stroke-linejoin:round;stroke-miterlimit:1.41421;">
    <g id="iconos_7_">
        <path d="M433.497,312.025L397.063,368.51L372.938,358.776L288.864,512.129L387.635,512.129L430.915,454.754L468.075,454.754L507.836,512.129L541.314,512.129L464.68,320.478L433.497,312.025Z" style="fill:rgb(148,94,0);fill-rule:nonzero;"/>
        <path d="M463.073,464.317L435.687,464.317L399.617,512.129L496.208,512.129L463.073,464.317Z" style="fill:rgb(212,175,55);fill-rule:nonzero;"/>
        <path d="M38.384,420.339L9.974,512.129L49.419,512.129L80.975,420.711L89.983,349.566L120.038,349.566L147.081,423.293L130.557,512.129L168.836,512.129L187.655,411.513L168.836,358.479L161.999,334.487L265.561,393.163L246.13,426.899L291.255,452.899L338.99,370.041L293.865,344.04L275.113,376.591L154.53,308.276L148.028,285.441L159.857,237.523L164.954,281.32L173.14,302.577L205.442,321.463L192.045,273.861L181.689,182.405L148.22,181.028L142.339,164.848C164.763,160.267 181.641,140.942 182.884,117.475L82.134,104.116C81.398,107.558 80.977,111.125 80.977,114.788C80.977,132.469 89.966,148.046 103.621,157.217L102.732,157.121L82.565,174.075L56.727,171.905L0,221.497L0,296.974L45.059,308.105L38.384,420.339ZM28.688,269.558L28.688,247.019L47.813,229.548L47.813,273.861L28.688,269.558Z" style="fill-rule:nonzero;"/>
        <path d="M182.443,107.77L197.753,109.797C199.79,64.289 180.015,34.511 144.212,29.768C141.276,29.376 138.369,29.185 135.491,29.185C103.782,29.185 80.707,52.393 71.671,93.081L85.011,94.85L182.443,107.77Z" style="fill:rgb(255,0,0);fill-rule:nonzero;"/>
    </g>
</svg>
