<?xml version="1.0" standalone="no"?>
<!DOCTYPE svg PUBLIC "-//W3C//DTD SVG 20010904//EN"
 "http://www.w3.org/TR/2001/REC-SVG-20010904/DTD/svg10.dtd">
<svg version="1.0" xmlns="http://www.w3.org/2000/svg"
 width="700.000000pt" height="700.000000pt" viewBox="0 0 700.000000 700.000000"
 preserveAspectRatio="xMidYMid meet">
<metadata>
Created by potrace 1.11, written by Peter Selinger 2001-2013
</metadata>
<g transform="translate(0.000000,700.000000) scale(0.100000,-0.100000)"
fill="#000000" stroke="none">
<path d="M1737 6624 c-1 -1 -31 -4 -67 -8 -85 -7 -110 -12 -178 -38 -201 -75
-366 -244 -467 -479 -47 -110 -52 -122 -76 -207 -27 -98 -28 -96 70 -107 36
-4 75 -9 86 -11 11 -2 40 -6 65 -9 55 -6 129 -16 153 -21 10 -2 48 -6 85 -9
37 -3 74 -8 82 -10 8 -2 33 -6 55 -9 22 -3 78 -10 125 -16 47 -6 96 -13 110
-15 27 -4 56 -8 190 -25 47 -6 96 -13 110 -15 41 -6 102 -14 165 -21 33 -3 62
-8 65 -9 3 -2 34 -6 70 -10 36 -4 88 -11 115 -15 32 -5 52 -4 56 2 7 11 3 205
-6 253 -2 17 -7 48 -10 70 -28 190 -129 394 -252 508 -91 84 -239 161 -350
182 -46 8 -191 23 -196 19z"/>
<path d="M1059 5638 c-14 -26 -14 -182 0 -250 32 -154 120 -295 241 -390 l30
-24 -102 -86 c-57 -47 -116 -98 -133 -112 -25 -22 -37 -26 -70 -22 -59 7 -141
15 -222 21 l-71 5 -179 -156 c-98 -86 -192 -168 -208 -183 -17 -14 -64 -55
-105 -90 -41 -36 -85 -74 -96 -85 -12 -12 -49 -43 -82 -71 l-61 -50 0 -492
c-1 -388 2 -493 12 -494 15 -1 24 -3 107 -24 36 -9 74 -18 85 -20 11 -3 99
-24 195 -48 l175 -44 -1 -74 c-1 -41 -4 -128 -8 -194 -4 -66 -9 -149 -11 -185
-2 -36 -6 -108 -10 -160 -3 -52 -7 -133 -10 -180 -3 -47 -8 -128 -11 -180 -3
-52 -7 -117 -9 -145 -13 -235 -18 -312 -21 -328 -2 -9 -6 -26 -8 -36 -5 -20
-90 -294 -108 -346 -5 -16 -14 -43 -18 -60 -4 -16 -40 -133 -80 -260 -58 -189
-122 -395 -145 -475 -4 -13 27 -15 243 -15 136 0 252 4 258 8 7 4 14 17 17 29
2 13 48 149 102 303 280 807 293 845 300 911 4 32 8 75 11 94 2 19 6 46 8 60
3 14 8 50 11 80 3 30 12 102 20 160 8 58 17 130 20 160 3 30 7 66 10 80 2 14
7 50 11 80 3 30 9 73 13 95 l7 40 191 0 192 1 10 -26 c6 -14 67 -180 136 -370
69 -190 140 -381 157 -425 47 -123 48 -130 33 -208 -12 -62 -28 -147 -50 -272
-3 -16 -17 -88 -30 -160 -13 -71 -27 -143 -30 -160 -3 -16 -24 -128 -46 -249
-26 -139 -37 -221 -31 -225 14 -8 469 -7 478 1 6 6 15 48 30 128 2 14 11 59
19 100 8 41 17 93 20 115 4 22 8 48 11 57 3 10 7 30 10 45 3 16 9 53 15 83 20
108 69 375 74 400 3 14 6 34 9 45 2 11 16 86 31 168 l28 147 -28 88 c-16 48
-32 94 -36 102 -8 15 -45 120 -79 220 -10 30 -37 107 -60 170 -37 103 -93 289
-106 347 -2 12 -9 34 -14 48 -12 30 -25 36 170 -75 74 -42 155 -88 180 -102
25 -14 126 -71 225 -128 99 -56 200 -114 225 -127 25 -14 59 -33 75 -43 17
-10 46 -26 65 -37 19 -10 86 -48 148 -83 62 -36 139 -79 170 -97 57 -32 72
-53 54 -76 -16 -20 -233 -399 -230 -402 2 -1 127 -73 278 -160 151 -87 280
-162 287 -167 7 -6 18 1 32 21 12 16 21 32 21 34 0 3 38 72 85 152 47 81 85
149 85 151 0 3 8 17 19 32 33 48 381 658 381 669 0 5 -39 32 -86 59 -47 27
-106 62 -132 77 -26 15 -56 32 -67 37 -11 6 -27 14 -35 20 -62 42 -245 140
-254 137 -6 -3 -59 -90 -119 -193 -59 -104 -111 -195 -116 -203 -7 -12 -17
-10 -53 11 -23 14 -65 38 -93 53 -53 30 -303 171 -745 422 -146 83 -285 162
-310 176 -25 14 -117 66 -205 116 l-160 90 -42 152 c-24 83 -41 155 -38 158 2
4 6 18 9 32 14 66 136 552 140 556 2 2 6 -27 10 -64 4 -38 9 -84 11 -103 3
-19 9 -75 15 -125 16 -134 19 -155 26 -210 3 -27 29 -111 58 -185 l51 -135 60
-37 c33 -21 74 -44 90 -53 17 -8 37 -19 45 -25 34 -23 220 -129 220 -125 0 2
-38 140 -85 306 -47 167 -87 328 -90 359 -3 30 -8 73 -11 95 -3 22 -7 51 -9
65 -2 14 -6 56 -10 93 -3 37 -8 76 -9 85 -2 9 -7 49 -10 87 -4 39 -9 81 -11
95 -2 14 -6 52 -10 85 -3 33 -8 76 -10 95 -9 68 -14 116 -20 182 -4 37 -8 75
-10 85 -2 10 -6 48 -10 85 -4 37 -13 69 -19 71 -6 2 -49 5 -96 6 -47 2 -105 4
-130 6 -25 1 -80 3 -122 4 l-77 1 -10 33 c-5 17 -20 63 -34 102 -14 38 -24 73
-21 76 2 4 18 9 35 13 129 26 288 142 374 276 71 110 130 312 94 324 -15 5
-54 11 -189 26 -47 5 -94 12 -105 14 -11 2 -47 7 -80 11 -32 4 -66 8 -75 10
-8 1 -40 6 -71 9 -31 4 -66 8 -77 11 -12 2 -47 6 -79 10 -32 3 -71 8 -88 10
-56 9 -293 41 -370 51 -27 3 -72 10 -98 14 -41 6 -49 5 -58 -12z m-442 -1896
l0 -279 -41 9 c-23 6 -77 18 -121 27 l-80 17 -3 149 c-1 81 2 151 7 154 13 9
192 173 210 193 8 9 18 15 21 13 4 -2 7 -130 7 -283z"/>
<path d="M5392 1958 c-17 -17 -15 -53 3 -68 32 -27 106 -1 101 35 -6 40 -75
62 -104 33z"/>
<path d="M4908 1919 c-35 -20 -15 -69 27 -69 41 0 58 36 29 64 -18 18 -32 20
-56 5z"/>
<path d="M5909 1909 c-20 -20 -20 -22 -3 -40 24 -27 58 -24 74 6 12 22 11 27
-6 40 -26 20 -40 19 -65 -6z"/>
<path d="M5039 1748 c-51 -17 -55 -83 -5 -105 57 -26 123 26 96 77 -13 25 -59
39 -91 28z"/>
<path d="M5795 1752 c-30 -6 -55 -32 -55 -57 0 -51 80 -76 121 -39 19 18 25
50 11 71 -10 16 -53 30 -77 25z"/>
<path d="M5393 1690 c-40 -24 -48 -64 -19 -96 56 -63 166 -13 141 65 -13 42
-78 58 -122 31z"/>
<path d="M4619 1576 c-27 -13 -37 -50 -19 -72 15 -17 71 -19 88 -2 40 40 -16
101 -69 74z"/>
<path d="M6199 1577 c-26 -20 -31 -48 -13 -68 22 -24 66 -24 87 -1 23 25 21
48 -5 66 -27 19 -47 20 -69 3z"/>
<path d="M5237 1512 c-42 -5 -107 -72 -107 -110 0 -45 19 -80 55 -102 94 -58
225 -4 225 93 0 79 -76 132 -173 119z"/>
<path d="M5538 1496 c-78 -39 -95 -128 -36 -183 22 -20 80 -41 106 -37 6 1 23
2 37 3 36 2 93 59 100 101 5 27 1 43 -17 70 -42 63 -121 82 -190 46z"/>
<path d="M5913 1458 c-98 -26 -64 -145 38 -133 33 5 68 37 69 63 1 46 -57 84
-107 70z"/>
<path d="M4886 1439 c-33 -26 -34 -62 -1 -94 57 -58 159 -7 133 67 -17 49 -86
63 -132 27z"/>
<path d="M5039 1252 c-59 -22 -89 -90 -65 -147 28 -65 122 -94 201 -61 72 31
93 121 40 176 -46 48 -106 59 -176 32z"/>
<path d="M5696 1247 c-38 -22 -63 -62 -60 -94 1 -13 2 -30 3 -38 1 -19 48 -64
78 -76 66 -25 158 6 186 62 28 59 5 119 -59 149 -50 25 -101 23 -148 -3z"/>
<path d="M4672 1203 c-35 -7 -55 -45 -41 -76 16 -35 57 -48 97 -31 30 12 37
27 32 64 -4 32 -44 51 -88 43z"/>
<path d="M6138 1193 c-8 -10 -18 -27 -22 -37 -9 -27 30 -66 66 -66 38 0 79 40
71 69 -12 47 -85 68 -115 34z"/>
<path d="M4400 1170 c-28 -28 -11 -60 30 -60 35 0 56 29 37 52 -21 26 -46 29
-67 8z"/>
<path d="M6417 1175 c-21 -20 -10 -54 20 -61 17 -5 31 -1 44 12 17 18 18 21 3
42 -18 25 -46 29 -67 7z"/>
<path d="M5600 1023 c-91 -13 -144 -71 -129 -141 24 -115 206 -135 263 -29 23
42 16 94 -17 125 -29 28 -86 49 -117 45z"/>
<path d="M5203 1005 c-36 -15 -73 -68 -73 -103 0 -40 28 -79 72 -100 100 -48
210 6 210 102 0 89 -112 143 -209 101z"/>
<path d="M4908 967 c-31 -12 -53 -56 -43 -86 19 -60 143 -58 159 1 15 61 -50
109 -116 85z"/>
<path d="M5905 970 c-50 -19 -65 -71 -30 -106 50 -50 144 -23 145 42 0 46 -65
83 -115 64z"/>
<path d="M4612 794 c-27 -19 -29 -60 -3 -74 30 -15 66 -12 83 8 41 46 -28 103
-80 66z"/>
<path d="M6198 799 c-22 -12 -23 -52 -2 -73 33 -34 94 -7 94 42 0 35 -54 54
-92 31z"/>
<path d="M5375 705 c-30 -29 -32 -54 -5 -83 27 -29 64 -37 101 -22 37 16 52
41 43 75 -14 57 -95 74 -139 30z"/>
<path d="M5022 644 c-45 -31 -13 -104 46 -104 16 0 38 9 50 20 60 56 -27 133
-96 84z"/>
<path d="M5760 640 c-23 -23 -19 -58 11 -82 25 -21 45 -22 78 -5 36 18 44 51
20 81 -25 32 -80 35 -109 6z"/>
<path d="M4905 430 c-31 -34 0 -68 50 -56 18 5 25 13 25 31 0 39 -48 55 -75
25z"/>
<path d="M5916 434 c-29 -28 -12 -64 29 -64 43 0 62 50 26 70 -27 14 -37 13
-55 -6z"/>
<path d="M5396 404 c-17 -16 -20 -42 -8 -60 21 -33 95 -22 105 16 12 46 -62
80 -97 44z"/>
</g>
</svg>
