<?xml version="1.0" standalone="no"?>
<!DOCTYPE svg PUBLIC "-//W3C//DTD SVG 20010904//EN"
 "http://www.w3.org/TR/2001/REC-SVG-20010904/DTD/svg10.dtd">
<svg version="1.0" xmlns="http://www.w3.org/2000/svg"
 width="700.000000pt" height="700.000000pt" viewBox="0 0 700.000000 700.000000"
 preserveAspectRatio="xMidYMid meet">
<metadata>
Created by potrace 1.11, written by Peter Selinger 2001-2013
</metadata>
<g transform="translate(0.000000,700.000000) scale(0.100000,-0.100000)"
fill="#000000" stroke="none">
<path d="M1738 6626 c-1 -2 -32 -6 -68 -9 -281 -25 -512 -212 -649 -524 -32
-75 -77 -209 -87 -259 -7 -37 -3 -39 86 -49 30 -3 66 -8 80 -10 14 -2 63 -9
110 -15 47 -6 96 -13 110 -15 14 -2 52 -7 85 -11 33 -3 69 -8 79 -10 18 -3
136 -19 219 -29 54 -7 103 -14 182 -24 39 -6 93 -13 120 -16 28 -4 61 -8 75
-11 14 -2 50 -6 80 -9 30 -3 62 -8 70 -10 8 -2 41 -7 73 -10 32 -4 67 -8 79
-10 11 -3 46 -7 77 -10 31 -4 63 -8 72 -11 23 -6 26 8 23 116 -5 192 -36 340
-98 475 -122 265 -342 419 -626 441 -36 3 -70 7 -77 9 -6 2 -13 2 -15 1z"/>
<path d="M1065 5650 c-19 -30 -22 -191 -5 -265 34 -153 136 -312 253 -398 17
-12 7 -22 -113 -122 -110 -92 -136 -110 -163 -109 -36 1 -163 11 -248 19 l-56
5 -139 -121 c-76 -67 -157 -138 -180 -158 -22 -20 -69 -61 -104 -91 -35 -30
-74 -64 -86 -75 -12 -11 -48 -42 -80 -70 -32 -27 -78 -67 -101 -89 l-43 -39 0
-486 0 -487 288 -70 287 -71 -1 -74 c-1 -41 -4 -128 -8 -194 -8 -128 -11 -189
-21 -355 -3 -58 -7 -132 -10 -165 -3 -33 -7 -109 -10 -170 -3 -60 -8 -128 -9
-150 -2 -22 -7 -102 -11 -179 -4 -76 -9 -147 -11 -157 -2 -11 -6 -27 -8 -38
-3 -10 -16 -56 -31 -102 -28 -87 -232 -746 -266 -857 -13 -44 -59 -196 -59
-197 0 -5 499 3 506 8 7 4 14 17 17 29 2 13 48 147 100 298 321 925 294 845
301 910 3 25 7 61 10 80 5 33 52 401 61 485 3 22 7 56 10 75 3 19 8 58 11 85
3 28 9 68 13 90 l7 40 191 0 192 1 10 -26 c13 -30 218 -592 315 -858 14 -40
24 -82 21 -95 -3 -12 -7 -35 -10 -52 -3 -16 -14 -77 -25 -135 -10 -58 -21
-118 -24 -135 -3 -16 -8 -41 -11 -55 -4 -21 -30 -156 -50 -265 -3 -16 -24
-128 -46 -249 -26 -139 -37 -221 -31 -225 14 -8 469 -7 478 1 6 6 15 48 30
128 2 14 11 59 19 100 8 41 17 93 20 115 4 22 8 48 11 57 3 10 7 30 10 45 3
16 9 53 15 83 20 108 69 375 74 400 3 14 6 34 9 45 2 11 16 87 31 168 l29 148
-27 77 c-15 42 -42 122 -62 177 -83 233 -109 306 -145 420 -22 66 -49 154 -61
195 -11 41 -25 85 -30 98 -11 27 0 28 43 4 71 -40 953 -540 1111 -630 162 -92
184 -111 158 -137 -13 -14 -233 -397 -229 -400 4 -3 323 -187 373 -215 22 -12
77 -44 122 -71 60 -35 84 -45 91 -36 5 7 37 62 72 122 34 61 122 214 195 340
73 127 142 246 152 265 11 19 59 101 106 183 l85 147 -66 39 c-384 223 -507
291 -516 287 -6 -2 -59 -89 -119 -192 -59 -104 -111 -195 -116 -203 -7 -11
-18 -9 -57 14 -27 15 -69 39 -94 53 -25 14 -126 71 -225 127 -99 56 -337 191
-530 300 -192 109 -367 209 -387 222 -21 12 -40 23 -43 23 -3 0 -56 29 -117
65 l-113 65 -41 148 -42 148 19 74 c10 41 21 84 23 95 2 11 12 49 21 85 9 36
18 72 20 80 10 47 66 264 69 267 2 2 6 -27 10 -64 4 -38 9 -84 11 -103 3 -19
9 -75 15 -125 6 -49 13 -103 15 -120 2 -16 7 -56 10 -87 4 -32 30 -118 59
-190 l52 -133 84 -51 c176 -106 325 -192 328 -189 2 1 -10 49 -26 106 -93 322
-142 510 -147 554 -5 49 -21 191 -31 270 -8 63 -19 165 -29 255 -7 67 -16 145
-20 180 -10 78 -14 118 -20 182 -4 37 -8 75 -10 85 -2 10 -6 48 -10 85 -4 37
-13 69 -19 71 -6 2 -58 5 -116 7 -58 2 -125 4 -150 5 -25 1 -71 3 -102 4 -55
1 -57 2 -66 34 -5 17 -21 63 -36 101 -25 66 -32 96 -20 83 6 -6 86 20 149 49
149 70 292 240 339 404 19 66 30 161 19 158 -8 -2 -133 11 -168 18 -11 2 -39
6 -62 9 -23 3 -57 7 -75 10 -18 2 -89 12 -158 20 -69 9 -138 18 -155 20 -29 4
-150 20 -225 31 -19 2 -48 6 -65 9 -16 2 -52 7 -80 10 -27 3 -59 8 -70 10 -11
2 -44 7 -73 10 -69 7 -124 15 -139 20 -7 2 -15 0 -18 -5z m-448 -1909 l0 -278
-36 8 c-48 12 -172 40 -191 43 -12 2 -15 29 -18 149 l-3 147 42 37 c23 21 47
43 53 48 63 61 138 125 144 125 5 0 9 -125 9 -279z"/>
<path d="M5547 2892 c-26 -42 -95 -149 -152 -237 -58 -88 -134 -207 -170 -265
-36 -58 -74 -115 -83 -127 l-17 -22 -145 59 c-80 33 -150 60 -156 60 -9 0 -85
-131 -191 -329 -13 -24 -99 -181 -192 -350 -157 -284 -477 -868 -551 -1006
-18 -33 -52 -94 -75 -135 -23 -41 -51 -93 -63 -115 l-20 -40 637 0 636 0 115
152 c63 84 123 163 132 175 9 13 84 111 165 218 l148 195 240 1 239 1 33 -46
c47 -66 52 -73 71 -103 9 -14 46 -68 82 -120 36 -51 125 -178 198 -283 l132
-190 212 1 c180 0 213 2 210 15 -3 14 -152 393 -178 454 -7 17 -189 471 -404
1010 -216 539 -397 985 -403 991 -9 8 -382 115 -398 114 -2 0 -26 -35 -52 -78z"/>
<path d="M5638 1002 c-13 -3 -159 -185 -228 -286 -11 -16 -186 -250 -241 -321
-5 -7 202 -10 616 -10 l623 0 -96 140 c-97 142 -138 201 -263 380 l-69 99
-163 1 c-90 0 -171 -1 -179 -3z"/>
</g>
</svg>
